<?xml version="1.0" encoding="UTF-8"?>
<svg id="Capa_1" data-name="Capa 1" xmlns="http://www.w3.org/2000/svg" viewBox="0 0 128 128">
  <defs>
    <style>
      .cls-1 {
        fill: #fff;
      }

      .cls-2 {
        fill: #0a2a2b;
      }
    </style>
  </defs>
  <rect class="cls-2" x="-7.9" y="-6.65" width="143.79" height="138.45"/>
  <path class="cls-1" d="M114.99,47.14l-8.72,4.46-3.41-7.97s-.01.02-.02.03l-25.37,43.67c-4.61,7.93-13.17,12.86-22.34,12.86-14.24,0-25.83-11.59-25.83-25.83v-27.04h-8.93c-4.06,0-7.36-3.29-7.36-7.36s3.3-7.36,7.36-7.36h23.65v41.76c0,6.13,4.99,11.11,11.11,11.11,3.95,0,7.63-2.12,9.61-5.53l24.2-41.67-6.44,1.58-3.42-8.07,20.27-3.86c2.82-.54,5.64.9,6.87,3.49l8.77,15.73Z"/>
</svg>